<svg xmlns="http://www.w3.org/2000/svg" width="1200" height="500" viewBox="0 0 1200 500">
  <defs>
    <marker id="arrow" viewBox="0 0 10 10" refX="9" refY="5" markerWidth="6" markerHeight="6" orient="auto-start-reverse">
      <path d="M 0 0 L 10 5 L 0 10 z" fill="context-stroke"/>
    </marker>
  </defs>
  <rect x="0" y="0" width="100%" height="100%" fill="#f8fafc"/>
  <text x="30" y="34" font-family="Helvetica, Arial, sans-serif" font-size="20" fill="#0f172a">Studio Sidecar | Audio Analog | 2026-03-01</text>
  <text x="30" y="54" font-family="Helvetica, Arial, sans-serif" font-size="12" fill="#475569">Devices: 1 | Cables: 8 | Ports shown: 16/16 wired</text>
  <rect x="20.0" y="162.0" width="290.0" height="234.0" rx="8" ry="8" fill="#f8fafc" fill-opacity="0.55" stroke="#cbd5e1" stroke-width="1" stroke-dasharray="4 4"/>
  <path d="M 300.0 217.0 H 347.9 V 406.0 H 12.0 V 217.0 H 30.0" fill="none" stroke="#dc2626" stroke-width="1.35" marker-end="url(#arrow)"><title>AUDIO-001: Focusrite 18i20 [Line Out 1] -&gt; Focusrite 18i20 [Mic In 1]</title></path>
  <path d="M 300.0 239.0 H 351.0 V 416.0 H 12.0 V 239.0 H 30.0" fill="none" stroke="#dc2626" stroke-width="1.35" marker-end="url(#arrow)"><title>AUDIO-002: Focusrite 18i20 [Line Out 2] -&gt; Focusrite 18i20 [Mic In 2]</title></path>
  <path d="M 300.0 261.0 H 366.6 V 426.0 H 12.0 V 261.0 H 30.0" fill="none" stroke="#dc2626" stroke-width="1.35" marker-end="url(#arrow)"><title>AUDIO-003: Focusrite 18i20 [Line Out 3] -&gt; Focusrite 18i20 [Mic In 3]</title></path>
  <path d="M 300.0 283.0 H 382.2 V 436.0 H 12.0 V 283.0 H 30.0" fill="none" stroke="#dc2626" stroke-width="1.35" marker-end="url(#arrow)"><title>AUDIO-004: Focusrite 18i20 [Line Out 4] -&gt; Focusrite 18i20 [Mic In 4]</title></path>
  <path d="M 300.0 305.0 H 397.8 V 446.0 H 12.0 V 305.0 H 30.0" fill="none" stroke="#dc2626" stroke-width="1.35" marker-end="url(#arrow)"><title>AUDIO-005: Focusrite 18i20 [Line Out 5] -&gt; Focusrite 18i20 [Mic In 5]</title></path>
  <path d="M 300.0 327.0 H 413.4 V 456.0 H 12.0 V 327.0 H 30.0" fill="none" stroke="#dc2626" stroke-width="1.35" marker-end="url(#arrow)"><title>AUDIO-006: Focusrite 18i20 [Line Out 6] -&gt; Focusrite 18i20 [Mic In 6]</title></path>
  <path d="M 300.0 349.0 H 429.0 V 466.0 H 12.0 V 349.0 H 30.0" fill="none" stroke="#dc2626" stroke-width="1.35" marker-end="url(#arrow)"><title>AUDIO-007: Focusrite 18i20 [Line Out 7] -&gt; Focusrite 18i20 [Mic In 7]</title></path>
  <path d="M 300.0 371.0 H 432.1 V 476.0 H 12.0 V 371.0 H 30.0" fill="none" stroke="#dc2626" stroke-width="1.35" marker-end="url(#arrow)"><title>AUDIO-008: Focusrite 18i20 [Line Out 8] -&gt; Focusrite 18i20 [Mic In 8]</title></path>
  <rect x="283.2" y="199.0" width="81.6" height="14.0" rx="2" ry="2" fill="#ffffff" fill-opacity="1" stroke="#e2e8f0" stroke-width="0.9"/>
  <text x="324.0" y="209.0" text-anchor="middle" font-family="Helvetica, Arial, sans-serif" font-size="7.0" fill="#dc2626">AUDIO-001 MONO</text>
  <rect x="39.0" y="221.0" width="81.6" height="14.0" rx="2" ry="2" fill="#ffffff" fill-opacity="1" stroke="#e2e8f0" stroke-width="0.9"/>
  <text x="79.8" y="231.0" text-anchor="middle" font-family="Helvetica, Arial, sans-serif" font-size="7.0" fill="#dc2626">AUDIO-001 MONO</text>
  <rect x="284.7" y="221.0" width="81.6" height="14.0" rx="2" ry="2" fill="#ffffff" fill-opacity="1" stroke="#e2e8f0" stroke-width="0.9"/>
  <text x="325.5" y="231.0" text-anchor="middle" font-family="Helvetica, Arial, sans-serif" font-size="7.0" fill="#dc2626">AUDIO-002 MONO</text>
  <rect x="39.0" y="243.0" width="81.6" height="14.0" rx="2" ry="2" fill="#ffffff" fill-opacity="1" stroke="#e2e8f0" stroke-width="0.9"/>
  <text x="79.8" y="253.0" text-anchor="middle" font-family="Helvetica, Arial, sans-serif" font-size="7.0" fill="#dc2626">AUDIO-002 MONO</text>
  <rect x="292.5" y="243.0" width="81.6" height="14.0" rx="2" ry="2" fill="#ffffff" fill-opacity="1" stroke="#e2e8f0" stroke-width="0.9"/>
  <text x="333.3" y="253.0" text-anchor="middle" font-family="Helvetica, Arial, sans-serif" font-size="7.0" fill="#dc2626">AUDIO-003 MONO</text>
  <rect x="39.0" y="265.0" width="81.6" height="14.0" rx="2" ry="2" fill="#ffffff" fill-opacity="1" stroke="#e2e8f0" stroke-width="0.9"/>
  <text x="79.8" y="275.0" text-anchor="middle" font-family="Helvetica, Arial, sans-serif" font-size="7.0" fill="#dc2626">AUDIO-003 MONO</text>
  <rect x="300.3" y="265.0" width="81.6" height="14.0" rx="2" ry="2" fill="#ffffff" fill-opacity="1" stroke="#e2e8f0" stroke-width="0.9"/>
  <text x="341.1" y="275.0" text-anchor="middle" font-family="Helvetica, Arial, sans-serif" font-size="7.0" fill="#dc2626">AUDIO-004 MONO</text>
  <rect x="39.0" y="287.0" width="81.6" height="14.0" rx="2" ry="2" fill="#ffffff" fill-opacity="1" stroke="#e2e8f0" stroke-width="0.9"/>
  <text x="79.8" y="297.0" text-anchor="middle" font-family="Helvetica, Arial, sans-serif" font-size="7.0" fill="#dc2626">AUDIO-004 MONO</text>
  <rect x="308.1" y="287.0" width="81.6" height="14.0" rx="2" ry="2" fill="#ffffff" fill-opacity="1" stroke="#e2e8f0" stroke-width="0.9"/>
  <text x="348.9" y="297.0" text-anchor="middle" font-family="Helvetica, Arial, sans-serif" font-size="7.0" fill="#dc2626">AUDIO-005 MONO</text>
  <rect x="39.0" y="309.0" width="81.6" height="14.0" rx="2" ry="2" fill="#ffffff" fill-opacity="1" stroke="#e2e8f0" stroke-width="0.9"/>
  <text x="79.8" y="319.0" text-anchor="middle" font-family="Helvetica, Arial, sans-serif" font-size="7.0" fill="#dc2626">AUDIO-005 MONO</text>
  <rect x="315.9" y="309.0" width="81.6" height="14.0" rx="2" ry="2" fill="#ffffff" fill-opacity="1" stroke="#e2e8f0" stroke-width="0.9"/>
  <text x="356.7" y="319.0" text-anchor="middle" font-family="Helvetica, Arial, sans-serif" font-size="7.0" fill="#dc2626">AUDIO-006 MONO</text>
  <rect x="39.0" y="331.0" width="81.6" height="14.0" rx="2" ry="2" fill="#ffffff" fill-opacity="1" stroke="#e2e8f0" stroke-width="0.9"/>
  <text x="79.8" y="341.0" text-anchor="middle" font-family="Helvetica, Arial, sans-serif" font-size="7.0" fill="#dc2626">AUDIO-006 MONO</text>
  <rect x="323.7" y="331.0" width="81.6" height="14.0" rx="2" ry="2" fill="#ffffff" fill-opacity="1" stroke="#e2e8f0" stroke-width="0.9"/>
  <text x="364.5" y="341.0" text-anchor="middle" font-family="Helvetica, Arial, sans-serif" font-size="7.0" fill="#dc2626">AUDIO-007 MONO</text>
  <rect x="39.0" y="353.0" width="81.6" height="14.0" rx="2" ry="2" fill="#ffffff" fill-opacity="1" stroke="#e2e8f0" stroke-width="0.9"/>
  <text x="79.8" y="363.0" text-anchor="middle" font-family="Helvetica, Arial, sans-serif" font-size="7.0" fill="#dc2626">AUDIO-007 MONO</text>
  <rect x="325.2" y="353.0" width="81.6" height="14.0" rx="2" ry="2" fill="#ffffff" fill-opacity="1" stroke="#e2e8f0" stroke-width="0.9"/>
  <text x="366.0" y="363.0" text-anchor="middle" font-family="Helvetica, Arial, sans-serif" font-size="7.0" fill="#dc2626">AUDIO-008 MONO</text>
  <rect x="39.0" y="375.0" width="81.6" height="14.0" rx="2" ry="2" fill="#ffffff" fill-opacity="1" stroke="#e2e8f0" stroke-width="0.9"/>
  <text x="79.8" y="385.0" text-anchor="middle" font-family="Helvetica, Arial, sans-serif" font-size="7.0" fill="#dc2626">AUDIO-008 MONO</text>
  <rect x="30.0" y="170.0" width="270.0" height="218.0" rx="6" ry="6" fill="#ffffff" stroke="#334155" stroke-width="1.2"/>
  <rect x="30.0" y="170.0" width="270.0" height="36.0" rx="6" ry="6" fill="#e2e8f0" stroke="#334155" stroke-width="1.0"/>
  <line x1="30.0" y1="206.0" x2="300.0" y2="206.0" stroke="#334155" stroke-width="1"/>
  <text x="40.0" y="184.0" font-family="Helvetica, Arial, sans-serif" font-size="9" fill="#475569">IN</text>
  <text x="290.0" y="184.0" text-anchor="end" font-family="Helvetica, Arial, sans-serif" font-size="9" fill="#475569">OUT</text>
  <text x="165.0" y="190.0" text-anchor="middle" font-family="Helvetica, Arial, sans-serif" font-size="12" fill="#0f172a">Focusrite 18i20</text>
  <text x="165.0" y="201.0" text-anchor="middle" font-family="Helvetica, Arial, sans-serif" font-size="9" fill="#64748b">16/16 wired ports</text>
  <text x="43.0" y="220.0" text-anchor="start" font-family="Helvetica, Arial, sans-serif" font-size="9" fill="#1e293b">Mic In 1</text>
  <circle cx="30.0" cy="217.0" r="2.2" fill="#334155" stroke="#334155" stroke-width="1"/>
  <text x="287.0" y="220.0" text-anchor="end" font-family="Helvetica, Arial, sans-serif" font-size="9" fill="#1e293b">Line Out 1</text>
  <circle cx="300.0" cy="217.0" r="2.2" fill="#334155" stroke="#334155" stroke-width="1"/>
  <line x1="30.0" y1="228.0" x2="300.0" y2="228.0" stroke="#cbd5e1" stroke-width="1"/>
  <text x="43.0" y="242.0" text-anchor="start" font-family="Helvetica, Arial, sans-serif" font-size="9" fill="#1e293b">Mic In 2</text>
  <circle cx="30.0" cy="239.0" r="2.2" fill="#334155" stroke="#334155" stroke-width="1"/>
  <text x="287.0" y="242.0" text-anchor="end" font-family="Helvetica, Arial, sans-serif" font-size="9" fill="#1e293b">Line Out 2</text>
  <circle cx="300.0" cy="239.0" r="2.2" fill="#334155" stroke="#334155" stroke-width="1"/>
  <line x1="30.0" y1="250.0" x2="300.0" y2="250.0" stroke="#cbd5e1" stroke-width="1"/>
  <text x="43.0" y="264.0" text-anchor="start" font-family="Helvetica, Arial, sans-serif" font-size="9" fill="#1e293b">Mic In 3</text>
  <circle cx="30.0" cy="261.0" r="2.2" fill="#334155" stroke="#334155" stroke-width="1"/>
  <text x="287.0" y="264.0" text-anchor="end" font-family="Helvetica, Arial, sans-serif" font-size="9" fill="#1e293b">Line Out 3</text>
  <circle cx="300.0" cy="261.0" r="2.2" fill="#334155" stroke="#334155" stroke-width="1"/>
  <line x1="30.0" y1="272.0" x2="300.0" y2="272.0" stroke="#cbd5e1" stroke-width="1"/>
  <text x="43.0" y="286.0" text-anchor="start" font-family="Helvetica, Arial, sans-serif" font-size="9" fill="#1e293b">Mic In 4</text>
  <circle cx="30.0" cy="283.0" r="2.2" fill="#334155" stroke="#334155" stroke-width="1"/>
  <text x="287.0" y="286.0" text-anchor="end" font-family="Helvetica, Arial, sans-serif" font-size="9" fill="#1e293b">Line Out 4</text>
  <circle cx="300.0" cy="283.0" r="2.2" fill="#334155" stroke="#334155" stroke-width="1"/>
  <line x1="30.0" y1="294.0" x2="300.0" y2="294.0" stroke="#cbd5e1" stroke-width="1"/>
  <text x="43.0" y="308.0" text-anchor="start" font-family="Helvetica, Arial, sans-serif" font-size="9" fill="#1e293b">Mic In 5</text>
  <circle cx="30.0" cy="305.0" r="2.2" fill="#334155" stroke="#334155" stroke-width="1"/>
  <text x="287.0" y="308.0" text-anchor="end" font-family="Helvetica, Arial, sans-serif" font-size="9" fill="#1e293b">Line Out 5</text>
  <circle cx="300.0" cy="305.0" r="2.2" fill="#334155" stroke="#334155" stroke-width="1"/>
  <line x1="30.0" y1="316.0" x2="300.0" y2="316.0" stroke="#cbd5e1" stroke-width="1"/>
  <text x="43.0" y="330.0" text-anchor="start" font-family="Helvetica, Arial, sans-serif" font-size="9" fill="#1e293b">Mic In 6</text>
  <circle cx="30.0" cy="327.0" r="2.2" fill="#334155" stroke="#334155" stroke-width="1"/>
  <text x="287.0" y="330.0" text-anchor="end" font-family="Helvetica, Arial, sans-serif" font-size="9" fill="#1e293b">Line Out 6</text>
  <circle cx="300.0" cy="327.0" r="2.2" fill="#334155" stroke="#334155" stroke-width="1"/>
  <line x1="30.0" y1="338.0" x2="300.0" y2="338.0" stroke="#cbd5e1" stroke-width="1"/>
  <text x="43.0" y="352.0" text-anchor="start" font-family="Helvetica, Arial, sans-serif" font-size="9" fill="#1e293b">Mic In 7</text>
  <circle cx="30.0" cy="349.0" r="2.2" fill="#334155" stroke="#334155" stroke-width="1"/>
  <text x="287.0" y="352.0" text-anchor="end" font-family="Helvetica, Arial, sans-serif" font-size="9" fill="#1e293b">Line Out 7</text>
  <circle cx="300.0" cy="349.0" r="2.2" fill="#334155" stroke="#334155" stroke-width="1"/>
  <line x1="30.0" y1="360.0" x2="300.0" y2="360.0" stroke="#cbd5e1" stroke-width="1"/>
  <text x="43.0" y="374.0" text-anchor="start" font-family="Helvetica, Arial, sans-serif" font-size="9" fill="#1e293b">Mic In 8</text>
  <circle cx="30.0" cy="371.0" r="2.2" fill="#334155" stroke="#334155" stroke-width="1"/>
  <text x="287.0" y="374.0" text-anchor="end" font-family="Helvetica, Arial, sans-serif" font-size="9" fill="#1e293b">Line Out 8</text>
  <circle cx="300.0" cy="371.0" r="2.2" fill="#334155" stroke="#334155" stroke-width="1"/>
  <rect x="26.0" y="149.0" width="121.8" height="12.5" rx="2" ry="2" fill="#ffffff" fill-opacity="0.9" stroke="#cbd5e1" stroke-width="0.6"/>
  <text x="28.0" y="158.0" font-family="Helvetica, Arial, sans-serif" font-size="10" fill="#475569">Interface / Converter</text>
  <rect x="900.0" y="26.0" width="280" height="76.0" rx="8" ry="8" fill="#ffffff" fill-opacity="0.9" stroke="#cbd5e1" stroke-width="1"/>
  <text x="910.0" y="38.0" font-family="Helvetica, Arial, sans-serif" font-size="11" fill="#475569">Connection Types</text>
  <rect x="910.0" y="45.0" width="9" height="9" fill="#dc2626" rx="1" ry="1"/>
  <text x="924.0" y="53.0" font-family="Helvetica, Arial, sans-serif" font-size="10" fill="#475569">Analog Audio (8)</text>
  <text x="910.0" y="80.0" font-family="Helvetica, Arial, sans-serif" font-size="10" fill="#64748b">IN ports are left, OUT ports are right</text>
  <text x="910.0" y="93.0" font-family="Helvetica, Arial, sans-serif" font-size="10" fill="#64748b">Unwired ports are light gray</text>
</svg>