<svg xmlns="http://www.w3.org/2000/svg" width="1736" height="586" viewBox="0 0 1736 586">
  <defs>
    <marker id="arrow" viewBox="0 0 10 10" refX="9" refY="5" markerUnits="userSpaceOnUse" markerWidth="8" markerHeight="8" orient="auto-start-reverse">
      <path d="M 0 0 L 10 5 L 0 10 z" fill="context-stroke"/>
    </marker>
  </defs>
  <rect x="0" y="0" width="100%" height="100%" fill="#f8fafc"/>
  <text x="108.0" y="34" font-family="Helvetica, Arial, sans-serif" font-size="20" fill="#0f172a">Studio Sidecar | Computer/Data | 2026-08-22</text>
  <text x="108.0" y="54" font-family="Helvetica, Arial, sans-serif" font-size="12" fill="#475569">Devices: 6 | Cables: 5 | Ports shown: 10/12 wired</text>
  <rect x="98.0" y="176.0" width="290.0" height="102.0" rx="8" ry="8" fill="#ecfeff" fill-opacity="0.55" stroke="#0891b2" stroke-width="1" stroke-dasharray="6 4"/>
  <rect x="708.0" y="176.0" width="290.0" height="240.0" rx="8" ry="8" fill="#ecfeff" fill-opacity="0.55" stroke="#0891b2" stroke-width="1" stroke-dasharray="6 4"/>
  <rect x="1318.0" y="176.0" width="320.6" height="80.0" rx="8" ry="8" fill="#f8fafc" fill-opacity="0.55" stroke="#cbd5e1" stroke-width="1" stroke-dasharray="4 4"/>
  <rect x="1318.0" y="308.0" width="320.6" height="174.0" rx="8" ry="8" fill="#ecfeff" fill-opacity="0.55" stroke="#0891b2" stroke-width="1" stroke-dasharray="6 4"/>
  <path d="M 378.0 231.0 H 718.0" fill="none" stroke="#f8fafc" stroke-width="3.75" stroke-linecap="round" stroke-linejoin="round" aria-hidden="true"/>
  <path d="M 378.0 231.0 H 718.0" fill="none" stroke="#ca8a04" stroke-width="1.35" stroke-linecap="round" stroke-linejoin="round" marker-end="url(#arrow)"><title>COMP-001: Mac mini [HDMI Out] -&gt; TV Screen [HDMI In]</title></path>
  <path d="M 378.0 253.0 H 596.0 V 325.0 H 718.0" fill="none" stroke="#f8fafc" stroke-width="3.75" stroke-linecap="round" stroke-linejoin="round" aria-hidden="true"/>
  <path d="M 378.0 253.0 H 596.0 V 325.0 H 718.0" fill="none" stroke="#64748b" stroke-width="1.35" stroke-linecap="round" stroke-linejoin="round" marker-start="url(#arrow)" marker-end="url(#arrow)"><title>COMP-002: Mac mini [Thunderbolt Port] -&gt; Thunderbolt Dock [Host/Upstream Port]</title></path>
  <path d="M 988.0 325.0 H 1110.0 V 231.0 H 1328.0" fill="none" stroke="#f8fafc" stroke-width="3.75" stroke-linecap="round" stroke-linejoin="round" aria-hidden="true"/>
  <path d="M 988.0 325.0 H 1110.0 V 231.0 H 1328.0" fill="none" stroke="#64748b" stroke-width="1.35" stroke-linecap="round" stroke-linejoin="round" marker-start="url(#arrow)" marker-end="url(#arrow)"><title>COMP-003: Thunderbolt Dock [USB Port 1] -&gt; RME UFX III [USB Host (Computer)]</title></path>
  <path d="M 988.0 347.0 H 1158.0 V 363.0 H 1328.0" fill="none" stroke="#f8fafc" stroke-width="3.75" stroke-linecap="round" stroke-linejoin="round" aria-hidden="true"/>
  <path d="M 988.0 347.0 H 1158.0 V 363.0 H 1328.0" fill="none" stroke="#64748b" stroke-width="1.35" stroke-linecap="round" stroke-linejoin="round" marker-start="url(#arrow)" marker-end="url(#arrow)"><title>COMP-004: Thunderbolt Dock [USB Port 2] -&gt; Streamdeck #1 [USB-C]</title></path>
  <path d="M 988.0 369.0 H 1206.0 V 457.0 H 1328.0" fill="none" stroke="#f8fafc" stroke-width="3.75" stroke-linecap="round" stroke-linejoin="round" aria-hidden="true"/>
  <path d="M 988.0 369.0 H 1206.0 V 457.0 H 1328.0" fill="none" stroke="#64748b" stroke-width="1.35" stroke-linecap="round" stroke-linejoin="round" marker-start="url(#arrow)" marker-end="url(#arrow)"><title>COMP-005: Thunderbolt Dock [USB Port 3] -&gt; Streamdeck #2 [USB-C]</title></path>
  <rect x="393.9" y="213.0" width="76.2" height="14.0" rx="2" ry="2" fill="#ffffff" fill-opacity="1" stroke="#e2e8f0" stroke-width="0.9"/>
  <text x="432.0" y="223.0" text-anchor="middle" font-family="Helvetica, Arial, sans-serif" font-size="7.0" fill="#ca8a04">COMP-001 HDMI</text>
  <rect x="625.9" y="235.0" width="76.2" height="14.0" rx="2" ry="2" fill="#ffffff" fill-opacity="1" stroke="#e2e8f0" stroke-width="0.9"/>
  <text x="664.0" y="245.0" text-anchor="middle" font-family="Helvetica, Arial, sans-serif" font-size="7.0" fill="#ca8a04">COMP-001 HDMI</text>
  <rect x="396.6" y="235.0" width="70.8" height="14.0" rx="2" ry="2" fill="#ffffff" fill-opacity="1" stroke="#e2e8f0" stroke-width="0.9"/>
  <text x="432.0" y="245.0" text-anchor="middle" font-family="Helvetica, Arial, sans-serif" font-size="7.0" fill="#64748b">COMP-002 TB4</text>
  <rect x="628.6" y="329.0" width="70.8" height="14.0" rx="2" ry="2" fill="#ffffff" fill-opacity="1" stroke="#e2e8f0" stroke-width="0.9"/>
  <text x="664.0" y="339.0" text-anchor="middle" font-family="Helvetica, Arial, sans-serif" font-size="7.0" fill="#64748b">COMP-002 TB4</text>
  <rect x="1006.6" y="307.0" width="70.8" height="14.0" rx="2" ry="2" fill="#ffffff" fill-opacity="1" stroke="#e2e8f0" stroke-width="0.9"/>
  <text x="1042.0" y="317.0" text-anchor="middle" font-family="Helvetica, Arial, sans-serif" font-size="7.0" fill="#64748b">COMP-003 USB</text>
  <rect x="1238.6" y="235.0" width="70.8" height="14.0" rx="2" ry="2" fill="#ffffff" fill-opacity="1" stroke="#e2e8f0" stroke-width="0.9"/>
  <text x="1274.0" y="245.0" text-anchor="middle" font-family="Helvetica, Arial, sans-serif" font-size="7.0" fill="#64748b">COMP-003 USB</text>
  <rect x="1006.6" y="329.0" width="70.8" height="14.0" rx="2" ry="2" fill="#ffffff" fill-opacity="1" stroke="#e2e8f0" stroke-width="0.9"/>
  <text x="1042.0" y="339.0" text-anchor="middle" font-family="Helvetica, Arial, sans-serif" font-size="7.0" fill="#64748b">COMP-004 USB</text>
  <rect x="1238.6" y="367.0" width="70.8" height="14.0" rx="2" ry="2" fill="#ffffff" fill-opacity="1" stroke="#e2e8f0" stroke-width="0.9"/>
  <text x="1274.0" y="377.0" text-anchor="middle" font-family="Helvetica, Arial, sans-serif" font-size="7.0" fill="#64748b">COMP-004 USB</text>
  <rect x="1006.6" y="351.0" width="70.8" height="14.0" rx="2" ry="2" fill="#ffffff" fill-opacity="1" stroke="#e2e8f0" stroke-width="0.9"/>
  <text x="1042.0" y="361.0" text-anchor="middle" font-family="Helvetica, Arial, sans-serif" font-size="7.0" fill="#64748b">COMP-005 USB</text>
  <rect x="1238.6" y="461.0" width="70.8" height="14.0" rx="2" ry="2" fill="#ffffff" fill-opacity="1" stroke="#e2e8f0" stroke-width="0.9"/>
  <text x="1274.0" y="471.0" text-anchor="middle" font-family="Helvetica, Arial, sans-serif" font-size="7.0" fill="#64748b">COMP-005 USB</text>
  <rect x="108.0" y="184.0" width="270.0" height="86.0" rx="6" ry="6" fill="#ffffff" stroke="#334155" stroke-width="1.2"/>
  <rect x="108.0" y="184.0" width="270.0" height="36.0" rx="6" ry="6" fill="#e2e8f0" stroke="#334155" stroke-width="1.0"/>
  <line x1="108.0" y1="220.0" x2="378.0" y2="220.0" stroke="#334155" stroke-width="1"/>
  <text x="118.0" y="198.0" font-family="Helvetica, Arial, sans-serif" font-size="9" fill="#475569">IN</text>
  <text x="368.0" y="198.0" text-anchor="end" font-family="Helvetica, Arial, sans-serif" font-size="9" fill="#475569">OUT</text>
  <text x="243.0" y="204.0" text-anchor="middle" font-family="Helvetica, Arial, sans-serif" font-size="12" fill="#0f172a">Mac mini</text>
  <text x="243.0" y="215.0" text-anchor="middle" font-family="Helvetica, Arial, sans-serif" font-size="9" fill="#64748b">2/2 wired ports</text>
  <text x="365.0" y="234.0" text-anchor="end" font-family="Helvetica, Arial, sans-serif" font-size="9" fill="#1e293b">HDMI Out</text>
  <circle cx="378.0" cy="231.0" r="2.2" fill="#334155" stroke="#334155" stroke-width="1"/>
  <line x1="108.0" y1="242.0" x2="378.0" y2="242.0" stroke="#cbd5e1" stroke-width="1"/>
  <text x="365.0" y="256.0" text-anchor="end" font-family="Helvetica, Arial, sans-serif" font-size="9" fill="#1e293b">Thunderbolt P</text>
  <circle cx="378.0" cy="253.0" r="2.2" fill="#334155" stroke="#334155" stroke-width="1"/>
  <rect x="718.0" y="184.0" width="270.0" height="64.0" rx="6" ry="6" fill="#ffffff" stroke="#334155" stroke-width="1.2"/>
  <rect x="718.0" y="184.0" width="270.0" height="36.0" rx="6" ry="6" fill="#e2e8f0" stroke="#334155" stroke-width="1.0"/>
  <line x1="718.0" y1="220.0" x2="988.0" y2="220.0" stroke="#334155" stroke-width="1"/>
  <text x="728.0" y="198.0" font-family="Helvetica, Arial, sans-serif" font-size="9" fill="#475569">IN</text>
  <text x="978.0" y="198.0" text-anchor="end" font-family="Helvetica, Arial, sans-serif" font-size="9" fill="#475569">OUT</text>
  <text x="853.0" y="204.0" text-anchor="middle" font-family="Helvetica, Arial, sans-serif" font-size="12" fill="#0f172a">TV Screen</text>
  <text x="853.0" y="215.0" text-anchor="middle" font-family="Helvetica, Arial, sans-serif" font-size="9" fill="#64748b">1/1 wired ports</text>
  <text x="731.0" y="234.0" text-anchor="start" font-family="Helvetica, Arial, sans-serif" font-size="9" fill="#1e293b">HDMI In</text>
  <circle cx="718.0" cy="231.0" r="2.2" fill="#334155" stroke="#334155" stroke-width="1"/>
  <rect x="718.0" y="278.0" width="270.0" height="130.0" rx="6" ry="6" fill="#ffffff" stroke="#334155" stroke-width="1.2"/>
  <rect x="718.0" y="278.0" width="270.0" height="36.0" rx="6" ry="6" fill="#e2e8f0" stroke="#334155" stroke-width="1.0"/>
  <line x1="718.0" y1="314.0" x2="988.0" y2="314.0" stroke="#334155" stroke-width="1"/>
  <text x="728.0" y="292.0" font-family="Helvetica, Arial, sans-serif" font-size="9" fill="#475569">IN</text>
  <text x="978.0" y="292.0" text-anchor="end" font-family="Helvetica, Arial, sans-serif" font-size="9" fill="#475569">OUT</text>
  <text x="853.0" y="298.0" text-anchor="middle" font-family="Helvetica, Arial, sans-serif" font-size="12" fill="#0f172a">Thunderbolt Dock</text>
  <text x="853.0" y="309.0" text-anchor="middle" font-family="Helvetica, Arial, sans-serif" font-size="9" fill="#64748b">4/5 wired ports</text>
  <text x="731.0" y="328.0" text-anchor="start" font-family="Helvetica, Arial, sans-serif" font-size="9" fill="#1e293b">Host/Upstream P</text>
  <circle cx="718.0" cy="325.0" r="2.2" fill="#334155" stroke="#334155" stroke-width="1"/>
  <text x="975.0" y="328.0" text-anchor="end" font-family="Helvetica, Arial, sans-serif" font-size="9" fill="#1e293b">USB P 1</text>
  <circle cx="988.0" cy="325.0" r="2.2" fill="#334155" stroke="#334155" stroke-width="1"/>
  <line x1="718.0" y1="336.0" x2="988.0" y2="336.0" stroke="#cbd5e1" stroke-width="1"/>
  <text x="975.0" y="350.0" text-anchor="end" font-family="Helvetica, Arial, sans-serif" font-size="9" fill="#1e293b">USB P 2</text>
  <circle cx="988.0" cy="347.0" r="2.2" fill="#334155" stroke="#334155" stroke-width="1"/>
  <line x1="718.0" y1="358.0" x2="988.0" y2="358.0" stroke="#cbd5e1" stroke-width="1"/>
  <text x="975.0" y="372.0" text-anchor="end" font-family="Helvetica, Arial, sans-serif" font-size="9" fill="#1e293b">USB P 3</text>
  <circle cx="988.0" cy="369.0" r="2.2" fill="#334155" stroke="#334155" stroke-width="1"/>
  <line x1="718.0" y1="380.0" x2="988.0" y2="380.0" stroke="#cbd5e1" stroke-width="1"/>
  <text x="975.0" y="394.0" text-anchor="end" font-family="Helvetica, Arial, sans-serif" font-size="9" fill="#94a3b8">USB P 4</text>
  <circle cx="988.0" cy="391.0" r="2.2" fill="#ffffff" stroke="#94a3b8" stroke-width="1"/>
  <rect x="1328.0" y="184.0" width="300.6" height="64.0" rx="6" ry="6" fill="#ffffff" stroke="#334155" stroke-width="1.2"/>
  <rect x="1328.0" y="184.0" width="300.6" height="36.0" rx="6" ry="6" fill="#e2e8f0" stroke="#334155" stroke-width="1.0"/>
  <line x1="1328.0" y1="220.0" x2="1628.6" y2="220.0" stroke="#334155" stroke-width="1"/>
  <text x="1338.0" y="198.0" font-family="Helvetica, Arial, sans-serif" font-size="9" fill="#475569">IN</text>
  <text x="1618.6" y="198.0" text-anchor="end" font-family="Helvetica, Arial, sans-serif" font-size="9" fill="#475569">OUT</text>
  <text x="1478.3" y="204.0" text-anchor="middle" font-family="Helvetica, Arial, sans-serif" font-size="12" fill="#0f172a">RME UFX III</text>
  <text x="1478.3" y="215.0" text-anchor="middle" font-family="Helvetica, Arial, sans-serif" font-size="9" fill="#64748b">1/2 wired ports</text>
  <text x="1341.0" y="234.0" text-anchor="start" font-family="Helvetica, Arial, sans-serif" font-size="9" fill="#1e293b">USB Host (Computer)</text>
  <circle cx="1328.0" cy="231.0" r="2.2" fill="#334155" stroke="#334155" stroke-width="1"/>
  <text x="1615.6" y="234.0" text-anchor="end" font-family="Helvetica, Arial, sans-serif" font-size="9" fill="#94a3b8">ARC USB Remote</text>
  <circle cx="1628.6" cy="231.0" r="2.2" fill="#ffffff" stroke="#94a3b8" stroke-width="1"/>
  <rect x="1328.0" y="316.0" width="300.6" height="64.0" rx="6" ry="6" fill="#ffffff" stroke="#334155" stroke-width="1.2"/>
  <rect x="1328.0" y="316.0" width="300.6" height="36.0" rx="6" ry="6" fill="#e2e8f0" stroke="#334155" stroke-width="1.0"/>
  <line x1="1328.0" y1="352.0" x2="1628.6" y2="352.0" stroke="#334155" stroke-width="1"/>
  <text x="1338.0" y="330.0" font-family="Helvetica, Arial, sans-serif" font-size="9" fill="#475569">IN</text>
  <text x="1618.6" y="330.0" text-anchor="end" font-family="Helvetica, Arial, sans-serif" font-size="9" fill="#475569">OUT</text>
  <text x="1478.3" y="336.0" text-anchor="middle" font-family="Helvetica, Arial, sans-serif" font-size="12" fill="#0f172a">Streamdeck #1</text>
  <text x="1478.3" y="347.0" text-anchor="middle" font-family="Helvetica, Arial, sans-serif" font-size="9" fill="#64748b">1/1 wired ports</text>
  <text x="1341.0" y="366.0" text-anchor="start" font-family="Helvetica, Arial, sans-serif" font-size="9" fill="#1e293b">USB-C</text>
  <circle cx="1328.0" cy="363.0" r="2.2" fill="#334155" stroke="#334155" stroke-width="1"/>
  <rect x="1328.0" y="410.0" width="300.6" height="64.0" rx="6" ry="6" fill="#ffffff" stroke="#334155" stroke-width="1.2"/>
  <rect x="1328.0" y="410.0" width="300.6" height="36.0" rx="6" ry="6" fill="#e2e8f0" stroke="#334155" stroke-width="1.0"/>
  <line x1="1328.0" y1="446.0" x2="1628.6" y2="446.0" stroke="#334155" stroke-width="1"/>
  <text x="1338.0" y="424.0" font-family="Helvetica, Arial, sans-serif" font-size="9" fill="#475569">IN</text>
  <text x="1618.6" y="424.0" text-anchor="end" font-family="Helvetica, Arial, sans-serif" font-size="9" fill="#475569">OUT</text>
  <text x="1478.3" y="430.0" text-anchor="middle" font-family="Helvetica, Arial, sans-serif" font-size="12" fill="#0f172a">Streamdeck #2</text>
  <text x="1478.3" y="441.0" text-anchor="middle" font-family="Helvetica, Arial, sans-serif" font-size="9" fill="#64748b">1/1 wired ports</text>
  <text x="1341.0" y="460.0" text-anchor="start" font-family="Helvetica, Arial, sans-serif" font-size="9" fill="#1e293b">USB-C</text>
  <circle cx="1328.0" cy="457.0" r="2.2" fill="#334155" stroke="#334155" stroke-width="1"/>
  <rect x="104.0" y="163.0" width="104.4" height="12.5" rx="2" ry="2" fill="#ffffff" fill-opacity="0.9" stroke="#0891b2" stroke-width="0.6"/>
  <text x="106.0" y="172.0" font-family="Helvetica, Arial, sans-serif" font-size="10" fill="#0e7490">Computer / Control</text>
  <rect x="714.0" y="163.0" width="104.4" height="12.5" rx="2" ry="2" fill="#ffffff" fill-opacity="0.9" stroke="#0891b2" stroke-width="0.6"/>
  <text x="716.0" y="172.0" font-family="Helvetica, Arial, sans-serif" font-size="10" fill="#0e7490">Computer / Control</text>
  <rect x="1324.0" y="163.0" width="52.2" height="12.5" rx="2" ry="2" fill="#ffffff" fill-opacity="0.9" stroke="#cbd5e1" stroke-width="0.6"/>
  <text x="1326.0" y="172.0" font-family="Helvetica, Arial, sans-serif" font-size="10" fill="#475569">Interface</text>
  <rect x="1324.0" y="295.0" width="104.4" height="12.5" rx="2" ry="2" fill="#ffffff" fill-opacity="0.9" stroke="#0891b2" stroke-width="0.6"/>
  <text x="1326.0" y="304.0" font-family="Helvetica, Arial, sans-serif" font-size="10" fill="#0e7490">Computer / Control</text>
  <rect x="1436.6" y="26.0" width="280" height="90.0" rx="8" ry="8" fill="#ffffff" fill-opacity="0.9" stroke="#cbd5e1" stroke-width="1"/>
  <text x="1446.6" y="38.0" font-family="Helvetica, Arial, sans-serif" font-size="11" fill="#475569">Connection Types</text>
  <rect x="1446.6" y="45.0" width="9" height="9" fill="#64748b" rx="1" ry="1"/>
  <text x="1460.6" y="53.0" font-family="Helvetica, Arial, sans-serif" font-size="10" fill="#475569">Computer/Data (4)</text>
  <rect x="1446.6" y="59.0" width="9" height="9" fill="#ca8a04" rx="1" ry="1"/>
  <text x="1460.6" y="67.0" font-family="Helvetica, Arial, sans-serif" font-size="10" fill="#475569">Video (1)</text>
  <text x="1446.6" y="94.0" font-family="Helvetica, Arial, sans-serif" font-size="10" fill="#64748b">IN ports are left, OUT ports are right</text>
  <text x="1446.6" y="107.0" font-family="Helvetica, Arial, sans-serif" font-size="10" fill="#64748b">Unwired ports are light gray</text>
</svg>