<svg xmlns="http://www.w3.org/2000/svg" width="1212" height="492" viewBox="0 0 1212 492">
  <defs>
    <marker id="arrow" viewBox="0 0 10 10" refX="9" refY="5" markerUnits="userSpaceOnUse" markerWidth="8" markerHeight="8" orient="auto-start-reverse">
      <path d="M 0 0 L 10 5 L 0 10 z" fill="context-stroke"/>
    </marker>
  </defs>
  <rect x="0" y="0" width="100%" height="100%" fill="#f8fafc"/>
  <text x="108.0" y="34" font-family="Helvetica, Arial, sans-serif" font-size="20" fill="#0f172a">Studio Sidecar | Digital Audio | 2026-08-22</text>
  <text x="108.0" y="54" font-family="Helvetica, Arial, sans-serif" font-size="12" fill="#475569">Devices: 3 | Cables: 2 | Ports shown: 6/14 wired</text>
  <rect x="98.0" y="176.0" width="357.8" height="190.0" rx="8" ry="8" fill="#f8fafc" fill-opacity="0.55" stroke="#cbd5e1" stroke-width="1" stroke-dasharray="4 4"/>
  <rect x="815.8" y="176.0" width="299.0" height="80.0" rx="8" ry="8" fill="#f8fafc" fill-opacity="0.55" stroke="#cbd5e1" stroke-width="1" stroke-dasharray="4 4"/>
  <rect x="815.8" y="308.0" width="299.0" height="80.0" rx="8" ry="8" fill="#f8fafc" fill-opacity="0.55" stroke="#cbd5e1" stroke-width="1" stroke-dasharray="4 4"/>
  <path d="M 445.8 253.0 H 601.8 V 231.0 H 825.8" fill="none" stroke="#f8fafc" stroke-width="3.75" stroke-linecap="round" stroke-linejoin="round" aria-hidden="true"/>
  <path d="M 445.8 253.0 H 601.8 V 231.0 H 825.8" fill="none" stroke="#06b6d4" stroke-width="1.35" stroke-linecap="round" stroke-linejoin="round" marker-end="url(#arrow)"><title>DIGI-001: RME UFX III [ADAT 1 Out (Optical, S/PDIF)] -&gt; TC Electronic Clarity M Stereo [Optical In]</title></path>
  <path d="M 445.8 319.0 H 669.8 V 363.0 H 825.8" fill="none" stroke="#f8fafc" stroke-width="3.75" stroke-linecap="round" stroke-linejoin="round" aria-hidden="true"/>
  <path d="M 445.8 319.0 H 669.8 V 363.0 H 825.8" fill="none" stroke="#2563eb" stroke-width="1.35" stroke-linecap="round" stroke-linejoin="round" marker-start="url(#arrow)" marker-end="url(#arrow)"><title>DIGI-002↔003: RME UFX III [MADI Out Optical] -&gt; SSL AX MADI [MADI In Optical]</title></path>
  <rect x="476.0" y="235.0" width="81.6" height="14.0" rx="2" ry="2" fill="#ffffff" fill-opacity="1" stroke="#e2e8f0" stroke-width="0.9"/>
  <text x="516.8" y="245.0" text-anchor="middle" font-family="Helvetica, Arial, sans-serif" font-size="7.0" fill="#06b6d4">DIGI-001 SPDIF</text>
  <rect x="714.0" y="235.0" width="81.6" height="14.0" rx="2" ry="2" fill="#ffffff" fill-opacity="1" stroke="#e2e8f0" stroke-width="0.9"/>
  <text x="754.8" y="245.0" text-anchor="middle" font-family="Helvetica, Arial, sans-serif" font-size="7.0" fill="#06b6d4">DIGI-001 SPDIF</text>
  <rect x="459.8" y="301.0" width="114.0" height="14.0" rx="2" ry="2" fill="#ffffff" fill-opacity="1" stroke="#e2e8f0" stroke-width="0.9"/>
  <text x="516.8" y="311.0" text-anchor="middle" font-family="Helvetica, Arial, sans-serif" font-size="7.0" fill="#2563eb">DIGI-002↔003 MADIOPT</text>
  <rect x="697.8" y="367.0" width="114.0" height="14.0" rx="2" ry="2" fill="#ffffff" fill-opacity="1" stroke="#e2e8f0" stroke-width="0.9"/>
  <text x="754.8" y="377.0" text-anchor="middle" font-family="Helvetica, Arial, sans-serif" font-size="7.0" fill="#2563eb">DIGI-002↔003 MADIOPT</text>
  <rect x="108.0" y="184.0" width="337.8" height="174.0" rx="6" ry="6" fill="#ffffff" stroke="#334155" stroke-width="1.2"/>
  <rect x="108.0" y="184.0" width="337.8" height="36.0" rx="6" ry="6" fill="#e2e8f0" stroke="#334155" stroke-width="1.0"/>
  <line x1="108.0" y1="220.0" x2="445.8" y2="220.0" stroke="#334155" stroke-width="1"/>
  <text x="118.0" y="198.0" font-family="Helvetica, Arial, sans-serif" font-size="9" fill="#475569">IN</text>
  <text x="435.8" y="198.0" text-anchor="end" font-family="Helvetica, Arial, sans-serif" font-size="9" fill="#475569">OUT</text>
  <text x="276.9" y="204.0" text-anchor="middle" font-family="Helvetica, Arial, sans-serif" font-size="12" fill="#0f172a">RME UFX III</text>
  <text x="276.9" y="215.0" text-anchor="middle" font-family="Helvetica, Arial, sans-serif" font-size="9" fill="#64748b">3/11 wired ports</text>
  <text x="432.8" y="234.0" text-anchor="end" font-family="Helvetica, Arial, sans-serif" font-size="9" fill="#94a3b8">OPT 2 (SPDIF)</text>
  <circle cx="445.8" cy="231.0" r="2.2" fill="#ffffff" stroke="#94a3b8" stroke-width="1"/>
  <line x1="108.0" y1="242.0" x2="445.8" y2="242.0" stroke="#cbd5e1" stroke-width="1"/>
  <text x="121.0" y="256.0" text-anchor="start" font-family="Helvetica, Arial, sans-serif" font-size="9" fill="#94a3b8">ADAT 1 In (Opt)</text>
  <circle cx="108.0" cy="253.0" r="2.2" fill="#ffffff" stroke="#94a3b8" stroke-width="1"/>
  <text x="432.8" y="256.0" text-anchor="end" font-family="Helvetica, Arial, sans-serif" font-size="9" fill="#1e293b">ADAT 1 Out (Opt, S/...</text>
  <circle cx="445.8" cy="253.0" r="2.2" fill="#334155" stroke="#334155" stroke-width="1"/>
  <line x1="108.0" y1="264.0" x2="445.8" y2="264.0" stroke="#cbd5e1" stroke-width="1"/>
  <text x="121.0" y="278.0" text-anchor="start" font-family="Helvetica, Arial, sans-serif" font-size="9" fill="#94a3b8">AES In</text>
  <circle cx="108.0" cy="275.0" r="2.2" fill="#ffffff" stroke="#94a3b8" stroke-width="1"/>
  <text x="432.8" y="278.0" text-anchor="end" font-family="Helvetica, Arial, sans-serif" font-size="9" fill="#94a3b8">AES Out</text>
  <circle cx="445.8" cy="275.0" r="2.2" fill="#ffffff" stroke="#94a3b8" stroke-width="1"/>
  <line x1="108.0" y1="286.0" x2="445.8" y2="286.0" stroke="#cbd5e1" stroke-width="1"/>
  <text x="121.0" y="300.0" text-anchor="start" font-family="Helvetica, Arial, sans-serif" font-size="9" fill="#94a3b8">MADI In Coax</text>
  <circle cx="108.0" cy="297.0" r="2.2" fill="#ffffff" stroke="#94a3b8" stroke-width="1"/>
  <text x="432.8" y="300.0" text-anchor="end" font-family="Helvetica, Arial, sans-serif" font-size="9" fill="#94a3b8">MADI Out Coax</text>
  <circle cx="445.8" cy="297.0" r="2.2" fill="#ffffff" stroke="#94a3b8" stroke-width="1"/>
  <line x1="108.0" y1="308.0" x2="445.8" y2="308.0" stroke="#cbd5e1" stroke-width="1"/>
  <text x="121.0" y="322.0" text-anchor="start" font-family="Helvetica, Arial, sans-serif" font-size="9" fill="#1e293b">MADI In Opt</text>
  <circle cx="108.0" cy="319.0" r="2.2" fill="#334155" stroke="#334155" stroke-width="1"/>
  <text x="432.8" y="322.0" text-anchor="end" font-family="Helvetica, Arial, sans-serif" font-size="9" fill="#1e293b">MADI Out Opt</text>
  <circle cx="445.8" cy="319.0" r="2.2" fill="#334155" stroke="#334155" stroke-width="1"/>
  <line x1="108.0" y1="330.0" x2="445.8" y2="330.0" stroke="#cbd5e1" stroke-width="1"/>
  <text x="121.0" y="344.0" text-anchor="start" font-family="Helvetica, Arial, sans-serif" font-size="9" fill="#94a3b8">Word Clock In</text>
  <circle cx="108.0" cy="341.0" r="2.2" fill="#ffffff" stroke="#94a3b8" stroke-width="1"/>
  <text x="432.8" y="344.0" text-anchor="end" font-family="Helvetica, Arial, sans-serif" font-size="9" fill="#94a3b8">Word Clock Out</text>
  <circle cx="445.8" cy="341.0" r="2.2" fill="#ffffff" stroke="#94a3b8" stroke-width="1"/>
  <rect x="825.8" y="184.0" width="279.0" height="64.0" rx="6" ry="6" fill="#ffffff" stroke="#334155" stroke-width="1.2"/>
  <rect x="825.8" y="184.0" width="279.0" height="36.0" rx="6" ry="6" fill="#e2e8f0" stroke="#334155" stroke-width="1.0"/>
  <line x1="825.8" y1="220.0" x2="1104.8" y2="220.0" stroke="#334155" stroke-width="1"/>
  <text x="835.8" y="198.0" font-family="Helvetica, Arial, sans-serif" font-size="9" fill="#475569">IN</text>
  <text x="1094.8" y="198.0" text-anchor="end" font-family="Helvetica, Arial, sans-serif" font-size="9" fill="#475569">OUT</text>
  <text x="965.3" y="204.0" text-anchor="middle" font-family="Helvetica, Arial, sans-serif" font-size="12" fill="#0f172a">TC Electronic Clarity M ...</text>
  <text x="965.3" y="215.0" text-anchor="middle" font-family="Helvetica, Arial, sans-serif" font-size="9" fill="#64748b">1/1 wired ports</text>
  <text x="838.8" y="234.0" text-anchor="start" font-family="Helvetica, Arial, sans-serif" font-size="9" fill="#1e293b">Opt In</text>
  <circle cx="825.8" cy="231.0" r="2.2" fill="#334155" stroke="#334155" stroke-width="1"/>
  <rect x="825.8" y="316.0" width="279.0" height="64.0" rx="6" ry="6" fill="#ffffff" stroke="#334155" stroke-width="1.2"/>
  <rect x="825.8" y="316.0" width="279.0" height="36.0" rx="6" ry="6" fill="#e2e8f0" stroke="#334155" stroke-width="1.0"/>
  <line x1="825.8" y1="352.0" x2="1104.8" y2="352.0" stroke="#334155" stroke-width="1"/>
  <text x="835.8" y="330.0" font-family="Helvetica, Arial, sans-serif" font-size="9" fill="#475569">IN</text>
  <text x="1094.8" y="330.0" text-anchor="end" font-family="Helvetica, Arial, sans-serif" font-size="9" fill="#475569">OUT</text>
  <text x="965.3" y="336.0" text-anchor="middle" font-family="Helvetica, Arial, sans-serif" font-size="12" fill="#0f172a">SSL AX MADI</text>
  <text x="965.3" y="347.0" text-anchor="middle" font-family="Helvetica, Arial, sans-serif" font-size="9" fill="#64748b">2/2 wired ports</text>
  <text x="838.8" y="366.0" text-anchor="start" font-family="Helvetica, Arial, sans-serif" font-size="9" fill="#1e293b">MADI In Opt</text>
  <circle cx="825.8" cy="363.0" r="2.2" fill="#334155" stroke="#334155" stroke-width="1"/>
  <text x="1091.8" y="366.0" text-anchor="end" font-family="Helvetica, Arial, sans-serif" font-size="9" fill="#1e293b">MADI Out Opt</text>
  <circle cx="1104.8" cy="363.0" r="2.2" fill="#334155" stroke="#334155" stroke-width="1"/>
  <rect x="104.0" y="163.0" width="52.2" height="12.5" rx="2" ry="2" fill="#ffffff" fill-opacity="0.9" stroke="#cbd5e1" stroke-width="0.6"/>
  <text x="106.0" y="172.0" font-family="Helvetica, Arial, sans-serif" font-size="10" fill="#475569">Interface</text>
  <rect x="821.8" y="163.0" width="98.6" height="12.5" rx="2" ry="2" fill="#ffffff" fill-opacity="0.9" stroke="#cbd5e1" stroke-width="0.6"/>
  <text x="823.8" y="172.0" font-family="Helvetica, Arial, sans-serif" font-size="10" fill="#475569">Speaker / Monitor</text>
  <rect x="821.8" y="295.0" width="52.2" height="12.5" rx="2" ry="2" fill="#ffffff" fill-opacity="0.9" stroke="#cbd5e1" stroke-width="0.6"/>
  <text x="823.8" y="304.0" font-family="Helvetica, Arial, sans-serif" font-size="10" fill="#475569">Converter</text>
  <rect x="912.8" y="26.0" width="280" height="90.0" rx="8" ry="8" fill="#ffffff" fill-opacity="0.9" stroke="#cbd5e1" stroke-width="1"/>
  <text x="922.8" y="38.0" font-family="Helvetica, Arial, sans-serif" font-size="11" fill="#475569">Connection Types</text>
  <rect x="922.8" y="45.0" width="9" height="9" fill="#06b6d4" rx="1" ry="1"/>
  <text x="936.8" y="53.0" font-family="Helvetica, Arial, sans-serif" font-size="10" fill="#475569">Digital Audio (1)</text>
  <rect x="922.8" y="59.0" width="9" height="9" fill="#2563eb" rx="1" ry="1"/>
  <text x="936.8" y="67.0" font-family="Helvetica, Arial, sans-serif" font-size="10" fill="#475569">MADI (1)</text>
  <text x="922.8" y="94.0" font-family="Helvetica, Arial, sans-serif" font-size="10" fill="#64748b">IN ports are left, OUT ports are right</text>
  <text x="922.8" y="107.0" font-family="Helvetica, Arial, sans-serif" font-size="10" fill="#64748b">Unwired ports are light gray</text>
</svg>